<?xml version="1.0" encoding="UTF-8" standalone="no"?>
<!DOCTYPE svg PUBLIC "-//W3C//DTD SVG 1.1//EN" "http://www.w3.org/Graphics/SVG/1.1/DTD/svg11.dtd">
<svg width="100%" height="100%" viewBox="0 0 800 800" version="1.1" xmlns="http://www.w3.org/2000/svg" xmlns:xlink="http://www.w3.org/1999/xlink" xml:space="preserve" xmlns:serif="http://www.serif.com/" style="fill-rule:evenodd;clip-rule:evenodd;stroke-linejoin:round;stroke-miterlimit:2;">
    <path d="M589.1,186.867C526.061,157.215 463.05,127.504 400.067,97.733L4.6,284.133L72.267,316.8L66.667,317.7L66.667,666.667L100,666.667L100,345.8L124,341.667L133.333,346.167L133.333,522.433C133.333,552.9 306.867,640.2 341.633,657.4C378.253,675.374 421.286,675.053 457.633,656.533C666.667,549.533 666.667,529.833 666.667,522.433L666.667,346.167L795.133,284.267C795.133,284.267 668.467,224.233 589.1,186.867ZM633.333,516.8C572.132,557.536 508.379,594.301 442.467,626.867C415.506,640.626 383.571,640.873 356.4,627.533C290.249,596.061 226.792,559.215 166.667,517.367L166.667,362.2L400,474.633L633.333,362.2L633.333,516.8ZM400,437.7L180.533,331.933L396.167,294.767L390.5,261.867L128.833,307L82.067,284.467L399.967,134.633C427.467,147.733 684.067,268.433 718.033,284.433L400,437.7Z" style="fill:rgb(147,197,253);fill-rule:nonzero;"/>
    <rect x="0" y="0" width="800" height="800" style="fill:none;fill-rule:nonzero;"/>
</svg>
