<?xml version="1.0" encoding="UTF-8" standalone="no"?>
<!DOCTYPE svg PUBLIC "-//W3C//DTD SVG 1.1//EN" "http://www.w3.org/Graphics/SVG/1.1/DTD/svg11.dtd">
<svg width="100%" height="100%" viewBox="0 0 800 800" version="1.1" xmlns="http://www.w3.org/2000/svg" xmlns:xlink="http://www.w3.org/1999/xlink" xml:space="preserve" xmlns:serif="http://www.serif.com/" style="fill-rule:evenodd;clip-rule:evenodd;stroke-linejoin:round;stroke-miterlimit:2;">
    <path d="M168.946,511.18L400,800L631.055,511.18C675.685,455.394 700,386.077 700,314.633L700,300C700,134.315 565.685,0 400,0C234.314,0 100,134.315 100,300L100,314.633C100,386.077 124.315,455.394 168.946,511.18ZM400,400C455.229,400 500,355.229 500,300C500,244.772 455.229,200 400,200C344.772,200 300,244.772 300,300C300,355.229 344.772,400 400,400Z" style="fill:rgb(147,197,253);"/>
</svg>
