<?xml version="1.0" encoding="UTF-8" standalone="no"?>
<!DOCTYPE svg PUBLIC "-//W3C//DTD SVG 1.1//EN" "http://www.w3.org/Graphics/SVG/1.1/DTD/svg11.dtd">
<svg width="100%" height="100%" viewBox="0 0 800 800" version="1.1" xmlns="http://www.w3.org/2000/svg" xmlns:xlink="http://www.w3.org/1999/xlink" xml:space="preserve" xmlns:serif="http://www.serif.com/" style="fill-rule:evenodd;clip-rule:evenodd;stroke-linecap:round;stroke-linejoin:round;">
    <path d="M170.532,424.227L271.819,302.889C282.085,289.689 287.218,283.089 289.909,275.687C292.289,269.137 293.274,262.162 292.8,255.209C292.264,247.352 289.159,239.589 282.949,224.062L259.259,164.838C250.068,141.86 245.472,130.372 237.545,122.842C230.559,116.206 221.806,111.73 212.336,109.952C201.59,107.934 189.586,110.935 165.578,116.937L100,133.334C100,466.667 333.323,700 666.667,700L683.053,634.413C689.057,610.407 692.057,598.4 690.04,587.657C688.26,578.187 683.787,569.433 677.15,562.447C669.62,554.52 658.13,549.923 635.153,540.733L582.303,519.593C564.59,512.507 555.733,508.963 546.903,508.693C539.097,508.453 531.347,510.043 524.267,513.34C516.257,517.067 509.513,523.813 496.023,537.303L393.143,638.563" style="fill:none;fill-rule:nonzero;stroke:rgb(147,197,253);stroke-width:66.67px;"/>
</svg>
