<?xml version="1.0" encoding="UTF-8" standalone="no"?>
<!DOCTYPE svg PUBLIC "-//W3C//DTD SVG 1.1//EN" "http://www.w3.org/Graphics/SVG/1.1/DTD/svg11.dtd">
<svg width="100%" height="100%" viewBox="0 0 800 800" version="1.1" xmlns="http://www.w3.org/2000/svg" xmlns:xlink="http://www.w3.org/1999/xlink" xml:space="preserve" xmlns:serif="http://www.serif.com/" style="fill-rule:evenodd;clip-rule:evenodd;stroke-linecap:round;stroke-linejoin:round;">
    <g transform="matrix(1,0,0,1,2.80797,14.5305)">
        <path d="M133.333,400L100,400L100,266.667C100,229.848 129.848,200 166.667,200L300,200M133.333,400L133.333,600C133.333,636.82 163.181,666.667 200,666.667L600,666.667C636.82,666.667 666.667,636.82 666.667,600L666.667,400M133.333,400L333.333,400M666.667,400L700,400L700,266.667C700,229.848 670.153,200 633.333,200L500,200M666.667,400L466.667,400M466.667,400L466.667,333.333L333.333,333.333L333.333,400M466.667,400L466.667,466.667L333.333,466.667L333.333,400M300,200L300,166.667C300,129.848 329.848,100 366.667,100L433.333,100C470.153,100 500,129.848 500,166.667L500,200M300,200L500,200" style="fill:none;fill-rule:nonzero;stroke:rgb(147,197,253);stroke-width:66.67px;"/>
    </g>
</svg>
